<svg width="40" height="34" viewBox="0 0 40 34" fill="none" xmlns="http://www.w3.org/2000/svg">
<path d="M24.5 14.4L15.5 9.21001" stroke="#64666E" stroke-width="2" stroke-linecap="round" stroke-linejoin="round"/>
<path d="M29 21V13C28.9996 12.6493 28.9071 12.3048 28.7315 12.0012C28.556 11.6975 28.3037 11.4454 28 11.27L21 7.26999C20.696 7.09446 20.3511 7.00204 20 7.00204C19.6489 7.00204 19.304 7.09446 19 7.26999L12 11.27C11.6963 11.4454 11.444 11.6975 11.2685 12.0012C11.0929 12.3048 11.0004 12.6493 11 13V21C11.0004 21.3507 11.0929 21.6952 11.2685 21.9988C11.444 22.3025 11.6963 22.5546 12 22.73L19 26.73C19.304 26.9055 19.6489 26.9979 20 26.9979C20.3511 26.9979 20.696 26.9055 21 26.73L28 22.73C28.3037 22.5546 28.556 22.3025 28.7315 21.9988C28.9071 21.6952 28.9996 21.3507 29 21Z" stroke="#64666E" stroke-width="2" stroke-linecap="round" stroke-linejoin="round"/>
<path d="M11.27 11.96L20 17.01L28.73 11.96" stroke="#64666E" stroke-width="2" stroke-linecap="round" stroke-linejoin="round"/>
<path d="M20 27.08V17" stroke="#64666E" stroke-width="2" stroke-linecap="round" stroke-linejoin="round"/>
</svg>
