<svg width="40" height="34" viewBox="0 0 40 34" fill="none" xmlns="http://www.w3.org/2000/svg">
<path d="M25 26V24C25 22.9391 24.5786 21.9217 23.8284 21.1716C23.0783 20.4214 22.0609 20 21 20H13C11.9391 20 10.9217 20.4214 10.1716 21.1716C9.42143 21.9217 9 22.9391 9 24V26" stroke="#64666E" stroke-width="2" stroke-linecap="round" stroke-linejoin="round"/>
<path d="M17 16C19.2091 16 21 14.2091 21 12C21 9.79086 19.2091 8 17 8C14.7909 8 13 9.79086 13 12C13 14.2091 14.7909 16 17 16Z" stroke="#64666E" stroke-width="2" stroke-linecap="round" stroke-linejoin="round"/>
<path d="M31 26V24C30.9993 23.1137 30.7044 22.2528 30.1614 21.5523C29.6184 20.8519 28.8581 20.3516 28 20.13" stroke="#64666E" stroke-width="2" stroke-linecap="round" stroke-linejoin="round"/>
<path d="M24 8.13C24.8604 8.35031 25.623 8.85071 26.1676 9.55232C26.7122 10.2539 27.0078 11.1168 27.0078 12.005C27.0078 12.8932 26.7122 13.7561 26.1676 14.4577C25.623 15.1593 24.8604 15.6597 24 15.88" stroke="#64666E" stroke-width="2" stroke-linecap="round" stroke-linejoin="round"/>
</svg>
